<?xml version="1.0" encoding="UTF-8" standalone="no"?>
<!DOCTYPE svg PUBLIC "-//W3C//DTD SVG 1.1//EN" "http://www.w3.org/Graphics/SVG/1.1/DTD/svg11.dtd">
<svg width="100%" height="100%" viewBox="0 0 146 182" version="1.1" xmlns="http://www.w3.org/2000/svg" xmlns:xlink="http://www.w3.org/1999/xlink" xml:space="preserve" xmlns:serif="http://www.serif.com/" style="fill-rule:evenodd;clip-rule:evenodd;stroke-linejoin:round;stroke-miterlimit:2;">
    <g transform="matrix(1,0,0,1,-9.47479,-59.256)">
        <g transform="matrix(1,0,0,1,9.475,59.256)">
            <path d="M145.46,10L98.46,10L98.46,57C98.46,57 99.46,62 105.46,62L145.46,62L145.46,10Z" style="fill:white;fill-rule:nonzero;"/>
        </g>
        <g transform="matrix(1,0,0,1,9.475,59.256)">
            <path d="M102.46,66C98.573,65.636 95.337,62.804 94.46,59L94.46,10L78.46,10L73.46,8L72.46,4C72.46,4 62.46,0 54.46,0C46.46,0 35.46,5 35.46,5L35.46,8L33.46,9C12.46,29 3.46,93 3.46,93C3.46,93 -6.54,158 7.46,174C14.46,182 27.46,184 43.46,178C59.46,172 73.46,119 73.46,119L76.46,116C76.46,116 82.46,126 94.46,126C106.46,126 116.46,117 116.46,117L145.46,117L145.46,67C145.46,67 109.46,67 102.46,66ZM47.46,30C49.46,28 57.46,28 59.46,30C61.46,32 61.46,37 60.46,40C59.46,43 54.46,48 53.46,48C52.46,48 47.46,43 46.46,40C45.46,37 45.46,32 47.46,30ZM41.21,60.25C38.21,61.25 33.21,61.25 31.21,59.25C29.21,57.25 29.21,49.25 31.21,47.25C33.21,45.25 38.21,45.25 41.21,46.25C44.21,47.25 49.21,52.25 49.21,53.25C49.21,54.25 44.21,59.25 41.21,60.25ZM59.46,75.5C57.46,77.5 49.46,77.5 47.46,75.5C45.46,73.5 45.46,68.5 46.46,65.5C47.46,62.5 52.46,57.5 53.46,57.5C54.46,57.5 59.46,62.5 60.46,65.5C61.46,68.5 61.46,73.5 59.46,75.5ZM76.71,58.25C74.71,60.25 69.71,60.25 66.71,59.25C63.71,58.25 58.71,53.25 58.71,52.25C58.71,51.25 63.71,46.25 66.71,45.25C69.71,44.25 74.71,44.25 76.71,46.25C78.71,48.25 78.71,56.25 76.71,58.25ZM95.46,114C86.683,114 79.46,106.777 79.46,98C79.46,89.223 86.683,82 95.46,82C104.237,82 111.46,89.223 111.46,98C111.46,106.777 104.237,114 95.46,114Z" style="fill:white;fill-rule:nonzero;"/>
        </g>
    </g>
</svg>
