<!-- Minified at https://svgomg.net/ -->
<svg viewBox="0 0 300 300" xmlns="http://www.w3.org/2000/svg" xml:space="preserve" style="fill-rule:evenodd;clip-rule:evenodd;stroke-linejoin:round;stroke-miterlimit:2">
    <path style="fill:none" d="M-26.805-43.163H314.23v255.406H-26.805z" transform="matrix(.87967 0 0 1.1746 23.58 50.7)"/>
    <path d="M145.46 10h-47v47s1 5 7 5h40V10Z" style="fill:#fff;fill-rule:nonzero" transform="matrix(1 0 0 1 9.475 59.256)"/>
    <path d="M102.46 66a9.08 9.08 0 0 1-8-7V10h-16l-5-2-1-4s-10-4-18-4-19 5-19 5v3l-2 1c-21 20-30 84-30 84s-10 65 4 81c7 8 20 10 36 4s30-59 30-59l3-3s6 10 18 10 22-9 22-9h29V67s-36 0-43-1Zm-55-36c2-2 10-2 12 0s2 7 1 10-6 8-7 8-6-5-7-8-1-8 1-10Zm-6.25 30.25c-3 1-8 1-10-1s-2-10 0-12 7-2 10-1 8 6 8 7-5 6-8 7ZM59.46 75.5c-2 2-10 2-12 0s-2-7-1-10 6-8 7-8 6 5 7 8 1 8-1 10Zm17.25-17.25c-2 2-7 2-10 1s-8-6-8-7 5-6 8-7 8-1 10 1 2 10 0 12ZM95.46 114c-8.777 0-16-7.223-16-16 0-8.777 7.223-16 16-16 8.777 0 16 7.223 16 16 0 8.777-7.223 16-16 16ZM154.06 67v-2.62l10.82-1.17V66c0 5.4 2.75 8.69 7.2 8.69s7.21-2.76 7.21-7.1c0-4.67-1.9-8.06-10.28-16-11.13-10.53-14.31-16.26-14.31-24.42 0-11 6.36-18.23 17.07-18.23s17.06 7.21 17.06 18.34v1.9L178 30.35v-2.12c0-5.72-2.23-8.69-6.15-8.69-3.92 0-6.15 2.44-6.15 7.1s2.34 8.06 10.29 16c10.83 10.82 14.33 16.23 14.33 24.36 0 10.6-7.42 18.23-18.13 18.23-10.71 0-18.13-7.6-18.13-18.23ZM223.71 33.11v-6.26c0-4.66-2.65-7.31-6.79-7.31-4.14 0-6.78 2.65-6.78 7.31v40.5c0 4.66 2.65 7.31 6.78 7.31 4.13 0 6.79-2.65 6.79-7.31V54.2h-6.79V43.6h18v23.75c0 10.7-7.21 17.91-18 17.91s-18-7.21-18-17.91v-40.5c0-10.7 7.21-17.91 18-17.91s18 7.21 18 17.91v6.26h-11.21ZM245.86 10h17.59c10.71 0 17.6 7 17.6 17.7v38.8c0 10.7-6.89 17.7-17.6 17.7h-17.59V10Zm17.07 63.6c4.34 0 6.88-2.54 6.88-6.89V27.49c0-4.35-2.54-6.89-6.88-6.89h-5.84v53h5.84ZM154.46 104.68c0-9.36 3.95-15.9 12.06-15.9 6.68 0 10.49 3.64 10.49 10.28 0 5-1.47 11.08-6.23 11.08-1.92 0-2.9-.91-3.18-2.35a3.887 3.887 0 0 1-3.49 2.35c-2.52 0-3.6-1.58-3.6-4 .005-.334.029-.668.07-1l.45-4.61c.32-3.22 1.85-4.61 4-4.61a3.387 3.387 0 0 1 3.18 1.74l.14-1.4h3.39l-1 9.44c-.013.14-.013.28 0 .42 0 .56.25.91.88.91 1.82 0 2.58-4.65 2.58-8 0-4.55-2.79-7.24-7.48-7.24-6.57 0-8.87 5.59-8.87 13.28 0 5.74 3.32 8.78 9 8.78a9.891 9.891 0 0 0 6.3-2.07l-.28 3.36a11.008 11.008 0 0 1-6.09 1.64c-7.78-.04-12.32-4.34-12.32-12.1Zm13-.21.31-3.07v-.25c0-1.43-.59-2.34-1.78-2.34s-1.57 1-1.68 2.1l-.42 4.09a2.864 2.864 0 0 0 0 .49c0 1 .42 1.68 1.5 1.68s1.9-.74 2.11-2.7h-.04ZM180.36 109.26V90.18h3.71v19.08a2.08 2.08 0 0 0 2.06 2.273 2.08 2.08 0 0 0 2.06-2.273V90.18h3.64v19.08c.006.106.009.211.009.317 0 2.979-2.451 5.43-5.43 5.43-.093 0-.186-.002-.279-.007a5.888 5.888 0 0 1-.297.008c-3.006 0-5.48-2.474-5.48-5.48 0-.089.003-.179.007-.268ZM207.62 90.18l-4.05 24.47h-5l-4.06-24.47h3.78l2.79 19.22 2.8-19.22h3.74ZM217 109.23h-4l-.8 5.42h-3.71l4.06-24.47h5l4.06 24.47h-3.78l-.83-5.42Zm-.49-3.57L215 95.42l-1.51 10.24h3.02Z" style="fill:#fff;fill-rule:nonzero" transform="matrix(1 0 0 1 9.475 59.256)"/>
</svg>