<svg xmlns="http://www.w3.org/2000/svg" viewBox="0 0 281.05 181.49"><defs><style>.cls-1{fill:#fff;}</style></defs><g id="Layer_2" data-name="Layer 2"><g id="Layer_1-2" data-name="Layer 1"><path class="cls-1" d="M145.46,10h-47V57s1,5,7,5h40Z"/><path class="cls-1" d="M102.46,66a9.06,9.06,0,0,1-8-7V10h-16l-5-2-1-4s-10-4-18-4-19,5-19,5V8l-2,1c-21,20-30,84-30,84s-10,65,4,81c7,8,20,10,36,4s30-59,30-59l3-3s6,10,18,10,22-9,22-9h29V67S109.46,67,102.46,66Zm-55-36c2-2,10-2,12,0s2,7,1,10-6,8-7,8-6-5-7-8S45.46,32,47.46,30ZM41.21,60.25c-3,1-8,1-10-1s-2-10,0-12,7-2,10-1,8,6,8,7S44.21,59.25,41.21,60.25ZM59.46,75.5c-2,2-10,2-12,0s-2-7-1-10,6-8,7-8,6,5,7,8S61.46,73.5,59.46,75.5ZM76.71,58.25c-2,2-7,2-10,1s-8-6-8-7,5-6,8-7,8-1,10,1S78.71,56.25,76.71,58.25ZM95.46,114a16,16,0,1,1,16-16A16,16,0,0,1,95.46,114Z"/><path class="cls-1" d="M154.06,67V64.38l10.82-1.17V66c0,5.4,2.75,8.69,7.2,8.69s7.21-2.76,7.21-7.1c0-4.67-1.9-8.06-10.28-16C157.88,41.06,154.7,35.33,154.7,27.17c0-11,6.36-18.23,17.07-18.23s17.06,7.21,17.06,18.34v1.9L178,30.35V28.23c0-5.72-2.23-8.69-6.15-8.69s-6.15,2.44-6.15,7.1,2.34,8.06,10.29,16C186.82,53.46,190.32,58.87,190.32,67c0,10.6-7.42,18.23-18.13,18.23S154.06,77.63,154.06,67Z"/><path class="cls-1" d="M223.71,33.11V26.85c0-4.66-2.65-7.31-6.79-7.31s-6.78,2.65-6.78,7.31v40.5c0,4.66,2.65,7.31,6.78,7.31s6.79-2.65,6.79-7.31V54.2h-6.79V43.6h18V67.35c0,10.7-7.21,17.91-18,17.91s-18-7.21-18-17.91V26.85c0-10.7,7.21-17.91,18-17.91s18,7.21,18,17.91v6.26Z"/><path class="cls-1" d="M245.86,10h17.59c10.71,0,17.6,7,17.6,17.7V66.5c0,10.7-6.89,17.7-17.6,17.7H245.86Zm17.07,63.6c4.34,0,6.88-2.54,6.88-6.89V27.49c0-4.35-2.54-6.89-6.88-6.89h-5.84v53Z"/><path class="cls-1" d="M154.46,104.68c0-9.36,3.95-15.9,12.06-15.9,6.68,0,10.49,3.64,10.49,10.28,0,5-1.47,11.08-6.23,11.08-1.92,0-2.9-.91-3.18-2.35a3.88,3.88,0,0,1-3.49,2.35c-2.52,0-3.6-1.58-3.6-4a9.21,9.21,0,0,1,.07-1l.45-4.61c.32-3.22,1.85-4.61,4-4.61a3.38,3.38,0,0,1,3.18,1.74l.14-1.4h3.39l-1,9.44a2.34,2.34,0,0,0,0,.42c0,.56.25.91.88.91,1.82,0,2.58-4.65,2.58-8,0-4.55-2.79-7.24-7.48-7.24-6.57,0-8.87,5.59-8.87,13.28,0,5.74,3.32,8.78,9,8.78a9.89,9.89,0,0,0,6.3-2.07l-.28,3.36a11,11,0,0,1-6.09,1.64C159,116.74,154.46,112.44,154.46,104.68Zm13-.21.31-3.07v-.25c0-1.43-.59-2.34-1.78-2.34s-1.57,1-1.68,2.1l-.42,4.09a2.86,2.86,0,0,0,0,.49c0,1,.42,1.68,1.5,1.68S167.29,106.43,167.5,104.47Z"/><path class="cls-1" d="M180.36,109.26V90.18h3.71v19.08a2.07,2.07,0,1,0,4.12,0V90.18h3.64v19.08a5.43,5.43,0,0,1-5.7,5.74A5.48,5.48,0,0,1,180.36,109.26Z"/><path class="cls-1" d="M207.62,90.18l-4.05,24.47h-5l-4.06-24.47h3.78l2.79,19.22,2.8-19.22Z"/><path class="cls-1" d="M217,109.23h-4l-.8,5.42h-3.71l4.06-24.47h5l4.06,24.47h-3.78Zm-.49-3.57L215,95.42l-1.51,10.24Z"/></g></g></svg>