<svg width="16" height="16" viewBox="0 0 16 16" fill="none" xmlns="http://www.w3.org/2000/svg">
<path d="M13.545 2.90702C12.5075 2.43088 11.4127 2.09105 10.288 1.89602C10.2778 1.8943 10.2673 1.89579 10.258 1.90026C10.2487 1.90474 10.241 1.91199 10.236 1.92102C10.095 2.17102 9.93899 2.49802 9.82999 2.75402C8.61759 2.57003 7.38438 2.57003 6.17199 2.75402C6.0504 2.46884 5.91285 2.19073 5.75999 1.92102C5.75486 1.91209 5.74714 1.90492 5.73786 1.90046C5.72858 1.896 5.71816 1.89445 5.70799 1.89602C4.58305 2.09026 3.48818 2.43012 2.45099 2.90702C2.44211 2.91041 2.43469 2.91677 2.42999 2.92502C0.355986 6.02402 -0.213014 9.04702 0.0659858 12.032C0.0669858 12.046 0.0759858 12.06 0.0869858 12.069C1.29472 12.9636 2.64558 13.6467 4.08199 14.089C4.09213 14.0922 4.10303 14.0921 4.1131 14.0887C4.12317 14.0853 4.13189 14.0787 4.13799 14.07C4.44599 13.65 4.71999 13.207 4.95599 12.741C4.95924 12.7347 4.9611 12.7277 4.96143 12.7205C4.96177 12.7134 4.96056 12.7063 4.95791 12.6996C4.95526 12.693 4.95121 12.687 4.94605 12.6821C4.94089 12.6772 4.93473 12.6734 4.92799 12.671C4.49715 12.5054 4.07988 12.3065 3.67999 12.076C3.67268 12.0718 3.66654 12.0658 3.66211 12.0586C3.65768 12.0515 3.6551 12.0433 3.65461 12.0349C3.65411 12.0264 3.65571 12.018 3.65927 12.0104C3.66283 12.0027 3.66823 11.9961 3.67499 11.991C3.75899 11.928 3.84299 11.862 3.92299 11.796C3.93005 11.7903 3.93853 11.7867 3.94752 11.7855C3.9565 11.7842 3.96565 11.7855 3.97399 11.789C6.59299 12.985 9.42799 12.985 12.015 11.789C12.0236 11.7852 12.0331 11.7838 12.0425 11.785C12.0518 11.7863 12.0607 11.7901 12.068 11.796C12.148 11.862 12.232 11.928 12.316 11.991C12.3228 11.996 12.3283 12.0026 12.3319 12.0102C12.3355 12.0178 12.3372 12.0262 12.3368 12.0346C12.3364 12.043 12.334 12.0512 12.3296 12.0584C12.3253 12.0657 12.3192 12.0717 12.312 12.076C11.913 12.3086 11.4952 12.5073 11.063 12.67C11.0563 12.6726 11.0502 12.6765 11.0452 12.6816C11.0401 12.6867 11.0362 12.6928 11.0336 12.6995C11.0311 12.7062 11.03 12.7133 11.0304 12.7205C11.0308 12.7277 11.0327 12.7347 11.036 12.741C11.276 13.206 11.551 13.65 11.853 14.07C11.8591 14.0787 11.8678 14.0853 11.8779 14.0887C11.8879 14.0921 11.8988 14.0922 11.909 14.089C13.3478 13.648 14.7009 12.9649 15.91 12.069C15.916 12.0648 15.921 12.0593 15.9246 12.0529C15.9282 12.0465 15.9304 12.0394 15.931 12.032C16.265 8.58102 15.372 5.58302 13.565 2.92602C13.5632 2.92163 13.5604 2.91767 13.557 2.9144C13.5536 2.91113 13.5495 2.90861 13.545 2.90702V2.90702ZM5.34699 10.214C4.55799 10.214 3.90899 9.49002 3.90899 8.60202C3.90899 7.71302 4.54599 6.98902 5.34699 6.98902C6.15399 6.98902 6.79699 7.71902 6.78499 8.60202C6.78499 9.49002 6.14799 10.214 5.34699 10.214ZM10.663 10.214C9.87499 10.214 9.22499 9.49002 9.22499 8.60202C9.22499 7.71302 9.86199 6.98902 10.663 6.98902C11.47 6.98902 12.114 7.71902 12.101 8.60202C12.101 9.49002 11.47 10.214 10.663 10.214Z" fill="white"/>
</svg>
